<svg xmlns="http://www.w3.org/2000/svg" viewBox="0 0 100 100">
  <!-- Sun rays -->
  <line x1="50" y1="50" x2="98" y2="50" stroke="#FFD700" stroke-width="1.5" opacity="0.25"/>
  <line x1="50" y1="50" x2="83.9" y2="83.9" stroke="#FFD700" stroke-width="1.5" opacity="0.25"/>
  <line x1="50" y1="50" x2="50" y2="98" stroke="#FFD700" stroke-width="1.5" opacity="0.25"/>
  <line x1="50" y1="50" x2="16.1" y2="83.9" stroke="#FFD700" stroke-width="1.5" opacity="0.25"/>
  <line x1="50" y1="50" x2="2" y2="50" stroke="#FFD700" stroke-width="1.5" opacity="0.25"/>
  <line x1="50" y1="50" x2="16.1" y2="16.1" stroke="#FFD700" stroke-width="1.5" opacity="0.25"/>
  <line x1="50" y1="50" x2="50" y2="2" stroke="#FFD700" stroke-width="1.5" opacity="0.25"/>
  <line x1="50" y1="50" x2="83.9" y2="16.1" stroke="#FFD700" stroke-width="1.5" opacity="0.25"/>
  <!-- Ticket -->
  <rect x="12" y="22" width="76" height="56" rx="10" fill="none" stroke="#60A5FA" stroke-width="3.5"/>
  <circle cx="12" cy="43" r="5.5" fill="white" stroke="#60A5FA" stroke-width="3.5"/>
  <circle cx="88" cy="43" r="5.5" fill="white" stroke="#60A5FA" stroke-width="3.5"/>
  <line x1="24" y1="43" x2="76" y2="43" stroke="#60A5FA" stroke-width="1.2" stroke-dasharray="4 3" opacity="0.25"/>
  <!-- P -->
  <path d="M33,51 L33,76 M33,51 C33,51 33,47 39,45 C45,43 53,45 53,51 C53,57 45,59 39,57 C33,55 33,51 33,51" stroke="#1E3A8A" stroke-width="4.5" fill="none" stroke-linecap="round" stroke-linejoin="round"/>
  <!-- Pulse -->
  <path d="M57,63 L61,63 L64,55 L67,71 L70,59 L73,63 L77,63" stroke="#FFD700" stroke-width="2.5" fill="none" stroke-linecap="round" stroke-linejoin="round"/>
  <!-- Three stars -->
  <circle cx="50" cy="30" r="2.2" fill="#FFD700"/>
  <circle cx="42" cy="33" r="1.5" fill="#FFD700" opacity="0.7"/>
  <circle cx="58" cy="33" r="1.5" fill="#FFD700" opacity="0.7"/>
</svg>
